<svg width="37" height="25" viewBox="0 0 37 25" fill="none" xmlns="http://www.w3.org/2000/svg">
<path d="M3.168 0V24.84H0V0H3.168Z" fill="url(#paint0_linear_522_9)"/>
<path d="M33.7939 0C34.6579 0 35.0899 0.444 35.0899 1.332L36.1339 24.84H32.9659L32.0659 2.628H31.3099L25.7659 20.952C25.5739 21.672 25.1179 22.032 24.3979 22.032H21.5539C20.8099 22.032 20.3299 21.672 20.1139 20.952L14.5699 2.628H13.8499L12.9859 24.84H9.81787L10.7899 1.332C10.8379 0.444 11.2819 0 12.1219 0H15.7219C16.3939 0 16.8379 0.36 17.0539 1.08L21.6979 16.236C21.8899 16.788 22.0459 17.34 22.1659 17.892C22.3099 18.444 22.4659 19.008 22.6339 19.584H23.2819C23.4499 19.008 23.6059 18.444 23.7499 17.892C23.8939 17.34 24.0499 16.764 24.2179 16.164L28.8619 1.08C29.0539 0.36 29.5099 0 30.2299 0H33.7939Z" fill="url(#paint1_linear_522_9)"/>
<defs>
<linearGradient id="paint0_linear_522_9" x1="17.8682" y1="-9.16003" x2="17.8682" y2="30.84" gradientUnits="userSpaceOnUse">
<stop stop-color="#320059"/>
<stop offset="1" stop-color="#9733E4"/>
</linearGradient>
<linearGradient id="paint1_linear_522_9" x1="17.8682" y1="-9.16003" x2="17.8682" y2="30.84" gradientUnits="userSpaceOnUse">
<stop stop-color="#320059"/>
<stop offset="1" stop-color="#9733E4"/>
</linearGradient>
</defs>
</svg>
